<mxfile host="app.diagrams.net" modified="2024-02-24T09:02:14.641Z" agent="Mozilla/5.0 (Windows NT 10.0; Win64; x64) AppleWebKit/537.36 (KHTML, like Gecko) Chrome/121.0.0.0 Safari/537.36 Edg/121.0.0.0" etag="uUuUr45qUMIGUNN7LKWN" version="23.1.5" type="github">
  <diagram id="C5RBs43oDa-KdzZeNtuy" name="Page-1">
    <mxGraphModel dx="1399" dy="511" grid="1" gridSize="10" guides="1" tooltips="1" connect="1" arrows="1" fold="1" page="1" pageScale="1" pageWidth="827" pageHeight="1169" math="0" shadow="0">
      <root>
        <mxCell id="WIyWlLk6GJQsqaUBKTNV-0" />
        <mxCell id="WIyWlLk6GJQsqaUBKTNV-1" parent="WIyWlLk6GJQsqaUBKTNV-0" />
        <mxCell id="X7WGage1cs4umBxfLJLf-0" value="Washing machine User" style="shape=umlActor;html=1;verticalLabelPosition=bottom;verticalAlign=top;align=center;" vertex="1" parent="WIyWlLk6GJQsqaUBKTNV-1">
          <mxGeometry x="100" y="180" width="30" height="60" as="geometry" />
        </mxCell>
        <mxCell id="X7WGage1cs4umBxfLJLf-2" value="Washing Machine" style="shape=rect;html=1;verticalAlign=top;fontStyle=1;whiteSpace=wrap;align=center;" vertex="1" parent="WIyWlLk6GJQsqaUBKTNV-1">
          <mxGeometry x="300" y="120" width="200" height="210" as="geometry" />
        </mxCell>
        <mxCell id="X7WGage1cs4umBxfLJLf-3" value="Waches Clother" style="shape=ellipse;html=1;strokeWidth=3;fontStyle=1;whiteSpace=wrap;align=center;perimeter=ellipsePerimeter;" vertex="1" parent="WIyWlLk6GJQsqaUBKTNV-1">
          <mxGeometry x="330" y="210" width="120" height="60" as="geometry" />
        </mxCell>
        <mxCell id="X7WGage1cs4umBxfLJLf-7" value="" style="edgeStyle=none;html=1;endArrow=none;verticalAlign=bottom;rounded=0;exitX=0.597;exitY=0.636;exitDx=0;exitDy=0;exitPerimeter=0;" edge="1" parent="WIyWlLk6GJQsqaUBKTNV-1" source="X7WGage1cs4umBxfLJLf-0">
          <mxGeometry width="160" relative="1" as="geometry">
            <mxPoint x="180" y="240" as="sourcePoint" />
            <mxPoint x="340" y="240" as="targetPoint" />
          </mxGeometry>
        </mxCell>
        <mxCell id="X7WGage1cs4umBxfLJLf-8" value="Customer&amp;nbsp;" style="shape=umlActor;html=1;verticalLabelPosition=bottom;verticalAlign=top;align=center;" vertex="1" parent="WIyWlLk6GJQsqaUBKTNV-1">
          <mxGeometry x="70" y="440" width="30" height="60" as="geometry" />
        </mxCell>
        <mxCell id="X7WGage1cs4umBxfLJLf-9" value="Cafe" style="shape=rect;html=1;verticalAlign=top;fontStyle=1;whiteSpace=wrap;align=center;" vertex="1" parent="WIyWlLk6GJQsqaUBKTNV-1">
          <mxGeometry x="300" y="400" width="220" height="400" as="geometry" />
        </mxCell>
        <mxCell id="X7WGage1cs4umBxfLJLf-10" value="Search" style="shape=ellipse;html=1;strokeWidth=3;fontStyle=1;whiteSpace=wrap;align=center;perimeter=ellipsePerimeter;" vertex="1" parent="WIyWlLk6GJQsqaUBKTNV-1">
          <mxGeometry x="350" y="440" width="120" height="60" as="geometry" />
        </mxCell>
        <mxCell id="X7WGage1cs4umBxfLJLf-11" value="Login" style="shape=ellipse;html=1;strokeWidth=3;fontStyle=1;whiteSpace=wrap;align=center;perimeter=ellipsePerimeter;" vertex="1" parent="WIyWlLk6GJQsqaUBKTNV-1">
          <mxGeometry x="354" y="525" width="120" height="60" as="geometry" />
        </mxCell>
        <mxCell id="X7WGage1cs4umBxfLJLf-12" value="Booking" style="shape=ellipse;html=1;strokeWidth=3;fontStyle=1;whiteSpace=wrap;align=center;perimeter=ellipsePerimeter;" vertex="1" parent="WIyWlLk6GJQsqaUBKTNV-1">
          <mxGeometry x="354" y="610" width="120" height="60" as="geometry" />
        </mxCell>
        <mxCell id="X7WGage1cs4umBxfLJLf-15" value="" style="edgeStyle=none;html=1;endArrow=none;verticalAlign=bottom;rounded=0;exitX=0.5;exitY=0.5;exitDx=0;exitDy=0;exitPerimeter=0;" edge="1" parent="WIyWlLk6GJQsqaUBKTNV-1" source="X7WGage1cs4umBxfLJLf-8" target="X7WGage1cs4umBxfLJLf-10">
          <mxGeometry width="160" relative="1" as="geometry">
            <mxPoint x="190" y="470" as="sourcePoint" />
            <mxPoint x="360" y="470" as="targetPoint" />
          </mxGeometry>
        </mxCell>
        <mxCell id="X7WGage1cs4umBxfLJLf-16" value="" style="edgeStyle=none;html=1;endArrow=none;verticalAlign=bottom;rounded=0;exitX=0.5;exitY=0.5;exitDx=0;exitDy=0;exitPerimeter=0;entryX=0.009;entryY=0.354;entryDx=0;entryDy=0;entryPerimeter=0;" edge="1" parent="WIyWlLk6GJQsqaUBKTNV-1" source="X7WGage1cs4umBxfLJLf-8" target="X7WGage1cs4umBxfLJLf-11">
          <mxGeometry width="160" relative="1" as="geometry">
            <mxPoint x="220" y="540" as="sourcePoint" />
            <mxPoint x="380" y="540" as="targetPoint" />
          </mxGeometry>
        </mxCell>
        <mxCell id="X7WGage1cs4umBxfLJLf-17" value="" style="edgeStyle=none;html=1;endArrow=none;verticalAlign=bottom;rounded=0;exitX=0.5;exitY=0.5;exitDx=0;exitDy=0;exitPerimeter=0;entryX=0.053;entryY=0.355;entryDx=0;entryDy=0;entryPerimeter=0;" edge="1" parent="WIyWlLk6GJQsqaUBKTNV-1" source="X7WGage1cs4umBxfLJLf-8" target="X7WGage1cs4umBxfLJLf-12">
          <mxGeometry width="160" relative="1" as="geometry">
            <mxPoint x="190" y="630" as="sourcePoint" />
            <mxPoint x="350" y="630" as="targetPoint" />
          </mxGeometry>
        </mxCell>
        <mxCell id="X7WGage1cs4umBxfLJLf-18" value="Payments" style="shape=ellipse;html=1;strokeWidth=3;fontStyle=1;whiteSpace=wrap;align=center;perimeter=ellipsePerimeter;" vertex="1" parent="WIyWlLk6GJQsqaUBKTNV-1">
          <mxGeometry x="354" y="700" width="120" height="60" as="geometry" />
        </mxCell>
        <mxCell id="X7WGage1cs4umBxfLJLf-19" value="" style="edgeStyle=none;html=1;endArrow=none;verticalAlign=bottom;rounded=0;entryX=0.033;entryY=0.39;entryDx=0;entryDy=0;entryPerimeter=0;" edge="1" parent="WIyWlLk6GJQsqaUBKTNV-1" target="X7WGage1cs4umBxfLJLf-18">
          <mxGeometry width="160" relative="1" as="geometry">
            <mxPoint x="85" y="470" as="sourcePoint" />
            <mxPoint x="350" y="740" as="targetPoint" />
          </mxGeometry>
        </mxCell>
        <mxCell id="X7WGage1cs4umBxfLJLf-24" value="extended" style="ellipse;whiteSpace=wrap;html=1;" vertex="1" parent="WIyWlLk6GJQsqaUBKTNV-1">
          <mxGeometry x="550" y="380" width="140" height="70" as="geometry" />
        </mxCell>
        <mxCell id="X7WGage1cs4umBxfLJLf-29" value="&amp;lt;&amp;lt;extend&amp;gt;&amp;gt;" style="edgeStyle=none;html=1;startArrow=open;endArrow=none;startSize=12;verticalAlign=bottom;dashed=1;labelBackgroundColor=none;rounded=0;entryX=0;entryY=0.5;entryDx=0;entryDy=0;exitX=0.773;exitY=0.137;exitDx=0;exitDy=0;exitPerimeter=0;" edge="1" parent="WIyWlLk6GJQsqaUBKTNV-1" source="X7WGage1cs4umBxfLJLf-9" target="X7WGage1cs4umBxfLJLf-24">
          <mxGeometry width="160" relative="1" as="geometry">
            <mxPoint x="440" y="440" as="sourcePoint" />
            <mxPoint x="600" y="440" as="targetPoint" />
          </mxGeometry>
        </mxCell>
        <mxCell id="X7WGage1cs4umBxfLJLf-30" value="&amp;lt;&amp;lt;include&amp;gt;&amp;gt;" style="edgeStyle=none;html=1;endArrow=open;verticalAlign=bottom;dashed=1;labelBackgroundColor=none;rounded=0;entryX=0.227;entryY=0.945;entryDx=0;entryDy=0;entryPerimeter=0;" edge="1" parent="WIyWlLk6GJQsqaUBKTNV-1" target="X7WGage1cs4umBxfLJLf-24">
          <mxGeometry width="160" relative="1" as="geometry">
            <mxPoint x="470" y="550" as="sourcePoint" />
            <mxPoint x="630" y="550" as="targetPoint" />
            <Array as="points">
              <mxPoint x="590" y="480" />
            </Array>
          </mxGeometry>
        </mxCell>
        <mxCell id="X7WGage1cs4umBxfLJLf-31" value="Student" style="shape=umlActor;html=1;verticalLabelPosition=bottom;verticalAlign=top;align=center;" vertex="1" parent="WIyWlLk6GJQsqaUBKTNV-1">
          <mxGeometry x="50" y="950" width="50" height="80" as="geometry" />
        </mxCell>
        <mxCell id="X7WGage1cs4umBxfLJLf-34" value="LMS" style="shape=rect;html=1;verticalAlign=top;fontStyle=1;whiteSpace=wrap;align=center;" vertex="1" parent="WIyWlLk6GJQsqaUBKTNV-1">
          <mxGeometry x="180" y="850" width="830" height="460" as="geometry" />
        </mxCell>
        <mxCell id="X7WGage1cs4umBxfLJLf-35" value="login&amp;nbsp;" style="shape=ellipse;html=1;strokeWidth=3;fontStyle=1;whiteSpace=wrap;align=center;perimeter=ellipsePerimeter;" vertex="1" parent="WIyWlLk6GJQsqaUBKTNV-1">
          <mxGeometry x="590" y="940" width="120" height="60" as="geometry" />
        </mxCell>
        <mxCell id="X7WGage1cs4umBxfLJLf-36" value="transcript" style="shape=ellipse;html=1;strokeWidth=3;fontStyle=1;whiteSpace=wrap;align=center;perimeter=ellipsePerimeter;" vertex="1" parent="WIyWlLk6GJQsqaUBKTNV-1">
          <mxGeometry x="310" y="990" width="120" height="60" as="geometry" />
        </mxCell>
        <mxCell id="X7WGage1cs4umBxfLJLf-37" value="enrollments" style="shape=ellipse;html=1;strokeWidth=3;fontStyle=1;whiteSpace=wrap;align=center;perimeter=ellipsePerimeter;" vertex="1" parent="WIyWlLk6GJQsqaUBKTNV-1">
          <mxGeometry x="300" y="1070" width="120" height="60" as="geometry" />
        </mxCell>
        <mxCell id="X7WGage1cs4umBxfLJLf-38" value="time table" style="shape=ellipse;html=1;strokeWidth=3;fontStyle=1;whiteSpace=wrap;align=center;perimeter=ellipsePerimeter;" vertex="1" parent="WIyWlLk6GJQsqaUBKTNV-1">
          <mxGeometry x="310" y="1169" width="120" height="60" as="geometry" />
        </mxCell>
        <mxCell id="X7WGage1cs4umBxfLJLf-41" value="&amp;lt;&amp;lt;include&amp;gt;&amp;gt;" style="edgeStyle=none;html=1;endArrow=open;verticalAlign=bottom;dashed=1;labelBackgroundColor=none;rounded=0;entryX=0;entryY=0.769;entryDx=0;entryDy=0;entryPerimeter=0;" edge="1" parent="WIyWlLk6GJQsqaUBKTNV-1" target="X7WGage1cs4umBxfLJLf-35">
          <mxGeometry width="160" relative="1" as="geometry">
            <mxPoint x="420" y="1010" as="sourcePoint" />
            <mxPoint x="580" y="1010" as="targetPoint" />
          </mxGeometry>
        </mxCell>
        <mxCell id="X7WGage1cs4umBxfLJLf-42" value="&amp;lt;&amp;lt;include&amp;gt;&amp;gt;" style="edgeStyle=none;html=1;endArrow=open;verticalAlign=bottom;dashed=1;labelBackgroundColor=none;rounded=0;" edge="1" parent="WIyWlLk6GJQsqaUBKTNV-1">
          <mxGeometry width="160" relative="1" as="geometry">
            <mxPoint x="420" y="1090" as="sourcePoint" />
            <mxPoint x="590" y="990" as="targetPoint" />
          </mxGeometry>
        </mxCell>
        <mxCell id="X7WGage1cs4umBxfLJLf-43" value="roll no slip" style="shape=ellipse;html=1;strokeWidth=3;fontStyle=1;whiteSpace=wrap;align=center;perimeter=ellipsePerimeter;" vertex="1" parent="WIyWlLk6GJQsqaUBKTNV-1">
          <mxGeometry x="300" y="900" width="120" height="60" as="geometry" />
        </mxCell>
        <mxCell id="X7WGage1cs4umBxfLJLf-44" value="&amp;lt;&amp;lt;include&amp;gt;&amp;gt;" style="edgeStyle=none;html=1;endArrow=open;verticalAlign=bottom;dashed=1;labelBackgroundColor=none;rounded=0;entryX=0;entryY=0.5;entryDx=0;entryDy=0;" edge="1" parent="WIyWlLk6GJQsqaUBKTNV-1" target="X7WGage1cs4umBxfLJLf-35">
          <mxGeometry width="160" relative="1" as="geometry">
            <mxPoint x="420" y="930" as="sourcePoint" />
            <mxPoint x="580" y="930" as="targetPoint" />
          </mxGeometry>
        </mxCell>
        <mxCell id="X7WGage1cs4umBxfLJLf-45" value="&amp;lt;&amp;lt;include&amp;gt;&amp;gt;" style="edgeStyle=none;html=1;endArrow=open;verticalAlign=bottom;dashed=1;labelBackgroundColor=none;rounded=0;" edge="1" parent="WIyWlLk6GJQsqaUBKTNV-1">
          <mxGeometry width="160" relative="1" as="geometry">
            <mxPoint x="430" y="1190" as="sourcePoint" />
            <mxPoint x="590" y="990" as="targetPoint" />
            <Array as="points">
              <mxPoint x="550" y="1030" />
            </Array>
          </mxGeometry>
        </mxCell>
        <mxCell id="X7WGage1cs4umBxfLJLf-46" value="search" style="shape=ellipse;html=1;strokeWidth=3;fontStyle=1;whiteSpace=wrap;align=center;perimeter=ellipsePerimeter;" vertex="1" parent="WIyWlLk6GJQsqaUBKTNV-1">
          <mxGeometry x="620" y="1180" width="120" height="60" as="geometry" />
        </mxCell>
        <mxCell id="X7WGage1cs4umBxfLJLf-47" value="&amp;lt;&amp;lt;extend&amp;gt;&amp;gt;" style="edgeStyle=none;html=1;startArrow=open;endArrow=none;startSize=12;verticalAlign=bottom;dashed=1;labelBackgroundColor=none;rounded=0;" edge="1" parent="WIyWlLk6GJQsqaUBKTNV-1" target="X7WGage1cs4umBxfLJLf-46">
          <mxGeometry width="160" relative="1" as="geometry">
            <mxPoint x="430" y="1200" as="sourcePoint" />
            <mxPoint x="590" y="1200" as="targetPoint" />
          </mxGeometry>
        </mxCell>
        <mxCell id="X7WGage1cs4umBxfLJLf-48" value="" style="edgeStyle=none;html=1;endArrow=none;verticalAlign=bottom;rounded=0;entryX=0.023;entryY=0.643;entryDx=0;entryDy=0;entryPerimeter=0;" edge="1" parent="WIyWlLk6GJQsqaUBKTNV-1" target="X7WGage1cs4umBxfLJLf-43">
          <mxGeometry width="160" relative="1" as="geometry">
            <mxPoint x="100" y="990" as="sourcePoint" />
            <mxPoint x="260" y="990" as="targetPoint" />
          </mxGeometry>
        </mxCell>
        <mxCell id="X7WGage1cs4umBxfLJLf-49" value="" style="edgeStyle=none;html=1;endArrow=none;verticalAlign=bottom;rounded=0;" edge="1" parent="WIyWlLk6GJQsqaUBKTNV-1">
          <mxGeometry width="160" relative="1" as="geometry">
            <mxPoint x="100" y="990" as="sourcePoint" />
            <mxPoint x="310" y="1020" as="targetPoint" />
          </mxGeometry>
        </mxCell>
        <mxCell id="X7WGage1cs4umBxfLJLf-50" value="" style="edgeStyle=none;html=1;endArrow=none;verticalAlign=bottom;rounded=0;" edge="1" parent="WIyWlLk6GJQsqaUBKTNV-1">
          <mxGeometry width="160" relative="1" as="geometry">
            <mxPoint x="100" y="990" as="sourcePoint" />
            <mxPoint x="300" y="1100" as="targetPoint" />
          </mxGeometry>
        </mxCell>
        <mxCell id="X7WGage1cs4umBxfLJLf-51" value="" style="edgeStyle=none;html=1;endArrow=none;verticalAlign=bottom;rounded=0;" edge="1" parent="WIyWlLk6GJQsqaUBKTNV-1">
          <mxGeometry width="160" relative="1" as="geometry">
            <mxPoint x="100" y="990" as="sourcePoint" />
            <mxPoint x="310" y="1200" as="targetPoint" />
          </mxGeometry>
        </mxCell>
        <mxCell id="X7WGage1cs4umBxfLJLf-53" value="admin" style="shape=umlActor;html=1;verticalLabelPosition=bottom;verticalAlign=top;align=center;" vertex="1" parent="WIyWlLk6GJQsqaUBKTNV-1">
          <mxGeometry x="1130" y="1010" width="100" height="140" as="geometry" />
        </mxCell>
        <mxCell id="X7WGage1cs4umBxfLJLf-54" value="Manage time table" style="shape=ellipse;html=1;strokeWidth=3;fontStyle=1;whiteSpace=wrap;align=center;perimeter=ellipsePerimeter;" vertex="1" parent="WIyWlLk6GJQsqaUBKTNV-1">
          <mxGeometry x="810" y="910" width="120" height="60" as="geometry" />
        </mxCell>
        <mxCell id="X7WGage1cs4umBxfLJLf-55" value="approve enrollments&amp;nbsp;" style="shape=ellipse;html=1;strokeWidth=3;fontStyle=1;whiteSpace=wrap;align=center;perimeter=ellipsePerimeter;" vertex="1" parent="WIyWlLk6GJQsqaUBKTNV-1">
          <mxGeometry x="810" y="1030" width="120" height="60" as="geometry" />
        </mxCell>
        <mxCell id="X7WGage1cs4umBxfLJLf-56" value="upload transcript" style="shape=ellipse;html=1;strokeWidth=3;fontStyle=1;whiteSpace=wrap;align=center;perimeter=ellipsePerimeter;" vertex="1" parent="WIyWlLk6GJQsqaUBKTNV-1">
          <mxGeometry x="810" y="1140" width="120" height="60" as="geometry" />
        </mxCell>
        <mxCell id="X7WGage1cs4umBxfLJLf-57" value="" style="edgeStyle=none;html=1;endArrow=none;verticalAlign=bottom;rounded=0;" edge="1" parent="WIyWlLk6GJQsqaUBKTNV-1" source="X7WGage1cs4umBxfLJLf-54">
          <mxGeometry width="160" relative="1" as="geometry">
            <mxPoint x="1000" y="1070" as="sourcePoint" />
            <mxPoint x="1160" y="1070" as="targetPoint" />
          </mxGeometry>
        </mxCell>
        <mxCell id="X7WGage1cs4umBxfLJLf-58" value="" style="edgeStyle=none;html=1;endArrow=none;verticalAlign=bottom;rounded=0;" edge="1" parent="WIyWlLk6GJQsqaUBKTNV-1" source="X7WGage1cs4umBxfLJLf-55">
          <mxGeometry width="160" relative="1" as="geometry">
            <mxPoint x="960" y="1070" as="sourcePoint" />
            <mxPoint x="1150" y="1070" as="targetPoint" />
          </mxGeometry>
        </mxCell>
        <mxCell id="X7WGage1cs4umBxfLJLf-59" value="" style="edgeStyle=none;html=1;endArrow=none;verticalAlign=bottom;rounded=0;" edge="1" parent="WIyWlLk6GJQsqaUBKTNV-1">
          <mxGeometry width="160" relative="1" as="geometry">
            <mxPoint x="930" y="1160" as="sourcePoint" />
            <mxPoint x="1160" y="1070" as="targetPoint" />
          </mxGeometry>
        </mxCell>
        <mxCell id="X7WGage1cs4umBxfLJLf-60" value="&amp;lt;&amp;lt;include&amp;gt;&amp;gt;" style="edgeStyle=none;html=1;endArrow=open;verticalAlign=bottom;dashed=1;labelBackgroundColor=none;rounded=0;entryX=0;entryY=0.5;entryDx=0;entryDy=0;" edge="1" parent="WIyWlLk6GJQsqaUBKTNV-1" target="X7WGage1cs4umBxfLJLf-54">
          <mxGeometry width="160" relative="1" as="geometry">
            <mxPoint x="700" y="960" as="sourcePoint" />
            <mxPoint x="860" y="960" as="targetPoint" />
          </mxGeometry>
        </mxCell>
        <mxCell id="X7WGage1cs4umBxfLJLf-61" value="&amp;lt;&amp;lt;include&amp;gt;&amp;gt;" style="edgeStyle=none;html=1;endArrow=open;verticalAlign=bottom;dashed=1;labelBackgroundColor=none;rounded=0;entryX=0.031;entryY=0.335;entryDx=0;entryDy=0;entryPerimeter=0;" edge="1" parent="WIyWlLk6GJQsqaUBKTNV-1" target="X7WGage1cs4umBxfLJLf-55">
          <mxGeometry width="160" relative="1" as="geometry">
            <mxPoint x="700" y="980" as="sourcePoint" />
            <mxPoint x="860" y="980" as="targetPoint" />
          </mxGeometry>
        </mxCell>
        <mxCell id="X7WGage1cs4umBxfLJLf-62" value="&amp;lt;&amp;lt;include&amp;gt;&amp;gt;" style="edgeStyle=none;html=1;endArrow=open;verticalAlign=bottom;dashed=1;labelBackgroundColor=none;rounded=0;exitX=0.706;exitY=0.945;exitDx=0;exitDy=0;exitPerimeter=0;" edge="1" parent="WIyWlLk6GJQsqaUBKTNV-1" source="X7WGage1cs4umBxfLJLf-35" target="X7WGage1cs4umBxfLJLf-56">
          <mxGeometry width="160" relative="1" as="geometry">
            <mxPoint x="660" y="1100" as="sourcePoint" />
            <mxPoint x="820" y="1100" as="targetPoint" />
            <Array as="points">
              <mxPoint x="730" y="1100" />
            </Array>
          </mxGeometry>
        </mxCell>
      </root>
    </mxGraphModel>
  </diagram>
</mxfile>
